<svg width="161" height="29" viewBox="0 0 161 29" fill="none" xmlns="http://www.w3.org/2000/svg">
<path d="M3.524 0.949998H3.446C2.562 0.949998 1.834 1.288 1.262 1.964C0.794 2.51 0.56 3.134 0.56 3.836V3.875V12.104C1.34 11.22 2.315 10.778 3.485 10.778C4.681 10.778 5.656 11.233 6.41 12.143V3.875C6.41 3.121 6.163 2.471 5.669 1.925C5.097 1.275 4.382 0.949998 3.524 0.949998ZM3.485 11.675C2.887 11.675 2.341 11.831 1.847 12.143C1.379 12.455 1.028 12.871 0.794 13.391C0.638 13.755 0.56 14.158 0.56 14.6C0.56 15.094 0.664 15.536 0.872 15.926C1.106 16.42 1.457 16.81 1.925 17.096C2.393 17.382 2.913 17.525 3.485 17.525C4.213 17.525 4.85 17.291 5.396 16.823C5.734 16.537 5.994 16.199 6.176 15.809C6.332 15.393 6.41 14.977 6.41 14.561C6.41 14.249 6.358 13.95 6.254 13.664C6.098 13.17 5.825 12.741 5.435 12.377C4.863 11.909 4.213 11.675 3.485 11.675ZM6.41 17.057C5.656 17.993 4.681 18.461 3.485 18.461C2.315 18.461 1.34 18.006 0.56 17.096V25.247V25.325C0.56 26.131 0.846 26.82 1.418 27.392C1.99 27.964 2.679 28.25 3.485 28.25C4.343 28.25 5.058 27.938 5.63 27.314C6.15 26.768 6.41 26.105 6.41 25.325V25.286V17.057ZM12.4733 0.949998C11.6933 0.949998 11.0173 1.223 10.4453 1.769C9.84728 2.341 9.54828 3.043 9.54828 3.875V11.87C9.86028 11.506 10.2373 11.22 10.6793 11.012C11.2253 10.752 11.8103 10.622 12.4343 10.622H12.5123C13.1103 10.622 13.6823 10.752 14.2283 11.012C14.6703 11.22 15.0603 11.506 15.3983 11.87C15.4763 11.948 15.5413 12.026 15.5933 12.104L28.3463 27.119C28.9183 27.873 29.6853 28.25 30.6473 28.25C31.5053 28.25 32.2333 27.925 32.8313 27.275C33.3253 26.729 33.5723 26.079 33.5723 25.325V25.286V17.369C33.2343 17.707 32.8443 17.98 32.4023 18.188C31.8563 18.448 31.2713 18.578 30.6473 18.578C29.9193 18.578 29.2433 18.409 28.6193 18.071C28.1773 17.811 27.8003 17.486 27.4883 17.096L14.6573 1.925C14.3713 1.613 14.0333 1.366 13.6433 1.184C13.2793 1.028 12.8893 0.949998 12.4733 0.949998ZM30.6473 0.949998C29.8413 0.949998 29.1653 1.223 28.6193 1.769C28.0213 2.341 27.7223 3.043 27.7223 3.875V15.185C27.7223 15.731 27.9043 16.225 28.2683 16.667C28.8403 17.395 29.6333 17.759 30.6473 17.759C31.3493 17.759 31.9733 17.564 32.5193 17.174C33.1953 16.654 33.5463 15.991 33.5723 15.185V3.875C33.5463 2.965 33.1953 2.224 32.5193 1.652C31.9733 1.184 31.3493 0.949998 30.6473 0.949998ZM12.4343 11.441C11.6543 11.441 10.9913 11.688 10.4453 12.182C9.87328 12.702 9.57428 13.326 9.54828 14.054V25.247V25.325C9.54828 25.975 9.74328 26.56 10.1333 27.08C10.7313 27.86 11.5113 28.25 12.4733 28.25C13.3053 28.25 14.0073 27.951 14.5793 27.353C15.1253 26.807 15.3983 26.131 15.3983 25.325V25.286V14.054C15.3723 13.014 14.8653 12.247 13.8773 11.753C13.4613 11.545 13.0063 11.441 12.5123 11.441H12.4343ZM39.5905 0.949998H39.5515C38.6675 0.949998 37.9395 1.288 37.3675 1.964C36.8995 2.51 36.6655 3.134 36.6655 3.836V3.875V25.247V25.325C36.6655 26.131 36.9385 26.82 37.4845 27.392C38.0565 27.964 38.7585 28.25 39.5905 28.25H47.0395C47.0655 28.25 47.0915 28.25 47.1175 28.25C47.1695 28.25 47.2085 28.25 47.2345 28.25C48.0145 28.25 48.7815 28.172 49.5355 28.016C50.2635 27.886 50.9915 27.691 51.7195 27.431C51.1215 27.275 50.6015 26.989 50.1595 26.573C49.8215 26.261 49.5355 25.91 49.3015 25.52C49.0155 24.948 48.8725 24.337 48.8725 23.687C48.8725 23.141 48.9895 22.608 49.2235 22.088C48.5215 22.296 47.8065 22.4 47.0785 22.4H42.5155V6.8V3.875C42.5155 3.251 42.6585 2.666 42.9445 2.12C43.1785 1.678 43.4775 1.288 43.8415 0.949998H39.5905ZM46.2205 0.949998C45.2845 0.975998 44.5305 1.366 43.9585 2.12C43.5945 2.64 43.4125 3.225 43.4125 3.875C43.4125 4.655 43.6725 5.331 44.1925 5.903C44.7385 6.475 45.4145 6.774 46.2205 6.8H46.9225C47.0005 6.8 47.0915 6.8 47.1955 6.8C49.3275 6.852 51.1345 7.632 52.6165 9.14C54.0985 10.648 54.8395 12.468 54.8395 14.6C54.8395 16.004 54.4885 17.304 53.7865 18.5C53.0845 19.696 52.1485 20.645 50.9785 21.347C50.9525 21.347 50.9135 21.36 50.8615 21.386C50.2895 21.854 49.9385 22.465 49.8085 23.219C49.7825 23.375 49.7695 23.531 49.7695 23.687C49.7695 24.181 49.8735 24.649 50.0815 25.091C50.3935 25.663 50.8225 26.092 51.3685 26.378C51.7845 26.586 52.2265 26.69 52.6945 26.69C53.1365 26.69 53.5525 26.586 53.9425 26.378C55.9965 25.182 57.6345 23.544 58.8565 21.464C60.0785 19.358 60.6895 17.07 60.6895 14.6C60.6895 12.182 60.1045 9.946 58.9345 7.892C57.7645 5.838 56.1785 4.2 54.1765 2.978C52.1745 1.73 49.9775 1.054 47.5855 0.949998C47.2995 0.949998 47.1045 0.949998 47.0005 0.949998H46.2205ZM64.0947 11.792C64.4587 11.454 64.8747 11.194 65.3427 11.012C65.7847 10.83 66.2397 10.739 66.7077 10.739C67.3057 10.739 67.8777 10.882 68.4237 11.168C69.0477 11.48 69.5547 11.922 69.9447 12.494C70.4127 10.83 71.3357 9.465 72.7137 8.399C74.0917 7.333 75.6517 6.8 77.3937 6.8C79.5517 6.8 81.3847 7.567 82.8927 9.101C84.4007 10.609 85.1547 12.442 85.1547 14.6C85.1547 16.758 84.4007 18.604 82.8927 20.138C81.3847 21.646 79.5517 22.4 77.3937 22.4C75.6517 22.4 74.0787 21.88 72.6747 20.84C71.2967 19.774 70.3737 18.396 69.9057 16.706C69.6197 17.148 69.2557 17.525 68.8137 17.837C68.1637 18.227 67.4617 18.422 66.7077 18.422C66.1617 18.422 65.6287 18.318 65.1087 18.11C64.7187 17.928 64.3807 17.694 64.0947 17.408C64.7447 20.554 66.3177 23.154 68.8137 25.208C71.3097 27.236 74.1697 28.25 77.3937 28.25C79.8637 28.25 82.1387 27.639 84.2187 26.417C86.3247 25.195 87.9757 23.544 89.1717 21.464C90.3937 19.358 91.0047 17.07 91.0047 14.6C91.0047 12.13 90.3937 9.855 89.1717 7.775C87.9757 5.669 86.3247 4.005 84.2187 2.783C82.1387 1.561 79.8637 0.949998 77.3937 0.949998C74.1957 0.949998 71.3487 1.977 68.8527 4.031C66.3567 6.059 64.7707 8.646 64.0947 11.792ZM66.7077 11.675C65.8497 11.675 65.1347 11.987 64.5627 12.611C64.2507 12.923 64.0297 13.3 63.8997 13.742C63.8217 14.028 63.7827 14.327 63.7827 14.639C63.7827 14.925 63.8217 15.198 63.8997 15.458C64.0037 15.822 64.1727 16.147 64.4067 16.433C64.9787 17.161 65.7457 17.525 66.7077 17.525C67.6437 17.525 68.3977 17.174 68.9697 16.472C69.2557 16.134 69.4507 15.77 69.5547 15.38C69.6067 15.12 69.6327 14.86 69.6327 14.6C69.6327 14.366 69.6067 14.145 69.5547 13.937C69.4507 13.443 69.2427 13.014 68.9307 12.65C68.3327 12 67.5917 11.675 66.7077 11.675Z" fill="#FD2C2C"/>
<path d="M121.125 0.949998H121.008C120.878 0.949998 120.748 0.962998 120.618 0.988998C120.358 1.041 120.111 1.119 119.877 1.223C119.591 1.353 119.331 1.522 119.097 1.73C119.045 1.782 118.98 1.834 118.902 1.886L109.074 10.7L99.4021 2.042C99.1161 1.782 98.8691 1.574 98.6611 1.418C98.1411 1.106 97.5951 0.949998 97.0231 0.949998C96.9711 0.949998 96.9191 0.962998 96.8671 0.988998C96.2691 1.015 95.7231 1.21 95.2291 1.574C94.9171 1.834 94.6571 2.146 94.4491 2.51C94.2671 2.874 94.1631 3.277 94.1371 3.719C94.1371 3.771 94.1371 3.862 94.1371 3.992V10.466C94.4491 10.102 94.8131 9.803 95.2291 9.569C95.8011 9.257 96.4121 9.101 97.0621 9.101C97.6081 9.101 98.1281 9.218 98.6221 9.452C98.9341 9.582 99.2461 9.777 99.5581 10.037C99.7661 10.193 100.039 10.44 100.377 10.778C100.741 11.09 100.949 11.272 101.001 11.324L107.124 16.784C107.332 16.94 107.54 17.07 107.748 17.174C108.164 17.408 108.606 17.525 109.074 17.525C109.464 17.525 109.841 17.447 110.205 17.291C110.465 17.187 110.712 17.044 110.946 16.862C110.946 16.836 110.946 16.823 110.946 16.823C110.972 16.823 110.998 16.81 111.024 16.784L117.303 11.168C117.381 11.09 117.654 10.83 118.122 10.388C118.616 9.946 119.006 9.647 119.292 9.491C119.838 9.205 120.436 9.062 121.086 9.062C121.606 9.062 122.113 9.166 122.607 9.374C123.153 9.608 123.621 9.946 124.011 10.388V4.07C124.011 3.992 124.011 3.927 124.011 3.875C124.011 3.121 123.764 2.471 123.27 1.925C122.828 1.457 122.308 1.158 121.71 1.028C121.502 0.975998 121.307 0.949998 121.125 0.949998ZM121.086 9.959C120.306 9.959 119.63 10.219 119.058 10.739C118.46 11.285 118.161 11.961 118.161 12.767V25.247V25.325C118.161 26.131 118.434 26.82 118.98 27.392C119.552 27.964 120.254 28.25 121.086 28.25C121.944 28.25 122.659 27.938 123.231 27.314C123.751 26.768 124.011 26.105 124.011 25.325V25.286V12.728C123.985 12.026 123.725 11.415 123.231 10.895C122.659 10.271 121.944 9.959 121.086 9.959ZM97.0621 9.998C96.2561 9.998 95.5671 10.284 94.9951 10.856C94.4491 11.376 94.1631 12.026 94.1371 12.806V25.247V25.325C94.1371 26.131 94.4101 26.82 94.9561 27.392C95.5541 27.964 96.2561 28.25 97.0621 28.25C97.9201 28.25 98.6351 27.938 99.2071 27.314C99.7271 26.768 99.9871 26.105 99.9871 25.325V25.286V12.806C99.9611 11.948 99.6101 11.233 98.9341 10.661C98.3881 10.219 97.7641 9.998 97.0621 9.998ZM130.084 0.949998H130.006C129.122 0.949998 128.394 1.288 127.822 1.964C127.354 2.51 127.12 3.134 127.12 3.836V3.875V12.104C127.9 11.22 128.875 10.778 130.045 10.778C131.241 10.778 132.216 11.233 132.97 12.143V3.875C132.97 3.121 132.723 2.471 132.229 1.925C131.657 1.275 130.942 0.949998 130.084 0.949998ZM130.045 11.675C129.447 11.675 128.901 11.831 128.407 12.143C127.939 12.455 127.588 12.871 127.354 13.391C127.198 13.755 127.12 14.158 127.12 14.6C127.12 15.094 127.224 15.536 127.432 15.926C127.666 16.42 128.017 16.81 128.485 17.096C128.953 17.382 129.473 17.525 130.045 17.525C130.773 17.525 131.41 17.291 131.956 16.823C132.294 16.537 132.554 16.199 132.736 15.809C132.892 15.393 132.97 14.977 132.97 14.561C132.97 14.249 132.918 13.95 132.814 13.664C132.658 13.17 132.385 12.741 131.995 12.377C131.423 11.909 130.773 11.675 130.045 11.675ZM132.97 17.057C132.216 17.993 131.241 18.461 130.045 18.461C128.875 18.461 127.9 18.006 127.12 17.096V25.247V25.325C127.12 26.131 127.406 26.82 127.978 27.392C128.55 27.964 129.239 28.25 130.045 28.25C130.903 28.25 131.618 27.938 132.19 27.314C132.71 26.768 132.97 26.105 132.97 25.325V25.286V17.057ZM149.719 0.949998C147.821 0.949998 146.027 1.327 144.337 2.081C142.647 2.809 141.165 3.836 139.891 5.162C137.369 7.788 136.108 10.934 136.108 14.6C136.108 17.616 137.005 20.333 138.799 22.751C140.073 24.467 141.659 25.819 143.557 26.807C145.481 27.769 147.535 28.25 149.719 28.25C151.513 28.25 153.229 27.912 154.867 27.236C156.505 26.56 157.948 25.624 159.196 24.428C159.196 24.428 159.209 24.402 159.235 24.35C159.833 23.778 160.132 23.089 160.132 22.283C160.132 21.451 159.846 20.762 159.274 20.216C158.702 19.644 158.013 19.358 157.207 19.358C156.427 19.358 155.764 19.618 155.218 20.138C155.192 20.164 155.166 20.19 155.14 20.216C155.114 20.216 155.088 20.229 155.062 20.255C153.58 21.685 151.799 22.4 149.719 22.4C147.431 22.4 145.52 21.555 143.986 19.865C142.634 18.357 141.958 16.602 141.958 14.6C141.958 12.78 142.517 11.155 143.635 9.725C144.363 8.815 145.26 8.1 146.326 7.58C147.392 7.06 148.523 6.8 149.719 6.8C151.045 6.8 152.28 7.112 153.424 7.736C153.372 7.502 153.346 7.255 153.346 6.995C153.346 6.501 153.437 6.033 153.619 5.591C153.905 4.863 154.373 4.265 155.023 3.797C155.647 3.381 156.336 3.16 157.09 3.134C154.854 1.678 152.397 0.949998 149.719 0.949998ZM157.168 4.031C156.57 4.031 156.024 4.2 155.53 4.538C154.984 4.902 154.607 5.396 154.399 6.02C154.295 6.332 154.243 6.644 154.243 6.956C154.243 7.502 154.386 7.996 154.672 8.438C154.802 8.646 154.971 8.854 155.179 9.062C155.751 9.608 156.427 9.881 157.207 9.881C158.013 9.881 158.702 9.595 159.274 9.023C159.846 8.451 160.132 7.762 160.132 6.956C160.132 6.462 160.015 5.994 159.781 5.552C159.755 5.526 159.703 5.461 159.625 5.357C159.573 5.253 159.521 5.175 159.469 5.123C158.897 4.395 158.143 4.031 157.207 4.031H157.168Z" fill="#F2F2F2"/>
</svg>
